<mxfile host="app.diagrams.net" agent="Mozilla/5.0 (Windows NT 10.0; Win64; x64) AppleWebKit/537.36 (KHTML, like Gecko) Chrome/140.0.0.0 Safari/537.36" version="28.2.5">
  <diagram name="Page-1" id="N9ALE8jsNFKZEVBDWELp">
    <mxGraphModel dx="1251" dy="684" grid="1" gridSize="10" guides="1" tooltips="1" connect="1" arrows="1" fold="1" page="1" pageScale="1" pageWidth="850" pageHeight="1100" math="0" shadow="0">
      <root>
        <mxCell id="0" />
        <mxCell id="1" parent="0" />
        <mxCell id="QOSWHmzuld3M1vxe0juh-2" value="" style="image;points=[];aspect=fixed;html=1;align=center;shadow=0;dashed=0;image=img/lib/allied_telesis/computer_and_terminals/Personal_Computer.svg;" parent="1" vertex="1">
          <mxGeometry x="90" y="400" width="45.6" height="61.800000000000004" as="geometry" />
        </mxCell>
        <mxCell id="QOSWHmzuld3M1vxe0juh-3" value="" style="image;points=[];aspect=fixed;html=1;align=center;shadow=0;dashed=0;image=img/lib/allied_telesis/computer_and_terminals/Personal_Computer.svg;" parent="1" vertex="1">
          <mxGeometry x="90" y="570" width="45.6" height="61.800000000000004" as="geometry" />
        </mxCell>
        <mxCell id="QOSWHmzuld3M1vxe0juh-4" value="&lt;font style=&quot;font-size: 19px;&quot;&gt;MasterNode&lt;/font&gt;" style="verticalAlign=top;align=center;overflow=fill;html=1;strokeColor=default;whiteSpace=wrap;rounded=1;gradientColor=default;" parent="1" vertex="1">
          <mxGeometry x="260" y="380" width="300" height="240" as="geometry" />
        </mxCell>
        <mxCell id="QOSWHmzuld3M1vxe0juh-5" value="NameNode" style="html=1;dropTarget=0;whiteSpace=wrap;rounded=1;gradientColor=light-dark(#000000,#545454);" parent="1" vertex="1">
          <mxGeometry x="410" y="580" width="120" height="40" as="geometry" />
        </mxCell>
        <mxCell id="QOSWHmzuld3M1vxe0juh-6" value="" style="shape=module;jettyWidth=8;jettyHeight=4;" parent="QOSWHmzuld3M1vxe0juh-5" vertex="1">
          <mxGeometry x="1" width="20" height="20" relative="1" as="geometry">
            <mxPoint x="-27" y="7" as="offset" />
          </mxGeometry>
        </mxCell>
        <mxCell id="QOSWHmzuld3M1vxe0juh-8" value="" style="html=1;dropTarget=0;whiteSpace=wrap;rounded=1;fillColor=#0050ef;fontColor=#ffffff;strokeColor=#001DBC;" parent="1" vertex="1">
          <mxGeometry x="280" y="415.9" width="260" height="134.1" as="geometry" />
        </mxCell>
        <mxCell id="QOSWHmzuld3M1vxe0juh-9" value="" style="shape=module;jettyWidth=8;jettyHeight=4;" parent="QOSWHmzuld3M1vxe0juh-8" vertex="1">
          <mxGeometry x="1" width="20" height="20" relative="1" as="geometry">
            <mxPoint x="-27" y="7" as="offset" />
          </mxGeometry>
        </mxCell>
        <mxCell id="QOSWHmzuld3M1vxe0juh-10" value="&lt;font style=&quot;font-size: 19px;&quot;&gt;WorkerNode&lt;/font&gt;" style="verticalAlign=top;align=center;overflow=fill;html=1;strokeColor=default;whiteSpace=wrap;rounded=1;gradientColor=default;" parent="1" vertex="1">
          <mxGeometry x="680" y="140" width="260" height="210" as="geometry" />
        </mxCell>
        <mxCell id="QOSWHmzuld3M1vxe0juh-11" value="&lt;font style=&quot;font-size: 19px;&quot;&gt;WorkerNode&lt;/font&gt;" style="verticalAlign=top;align=center;overflow=fill;html=1;strokeColor=default;whiteSpace=wrap;rounded=1;gradientColor=default;" parent="1" vertex="1">
          <mxGeometry x="680" y="650" width="260" height="220" as="geometry" />
        </mxCell>
        <mxCell id="QOSWHmzuld3M1vxe0juh-12" value="&lt;font style=&quot;font-size: 19px;&quot;&gt;WorkerNode&lt;/font&gt;" style="verticalAlign=top;align=center;overflow=fill;html=1;strokeColor=default;whiteSpace=wrap;rounded=1;gradientColor=default;" parent="1" vertex="1">
          <mxGeometry x="680" y="397.5" width="260" height="205" as="geometry" />
        </mxCell>
        <mxCell id="QOSWHmzuld3M1vxe0juh-15" value="DataNode" style="html=1;dropTarget=0;whiteSpace=wrap;rounded=1;gradientColor=light-dark(#000000,#545454);" parent="1" vertex="1">
          <mxGeometry x="820" y="562.5" width="95" height="40" as="geometry" />
        </mxCell>
        <mxCell id="QOSWHmzuld3M1vxe0juh-16" value="" style="shape=module;jettyWidth=8;jettyHeight=4;" parent="QOSWHmzuld3M1vxe0juh-15" vertex="1">
          <mxGeometry x="1" width="11" height="20" relative="1" as="geometry">
            <mxPoint x="-18" y="7" as="offset" />
          </mxGeometry>
        </mxCell>
        <mxCell id="QOSWHmzuld3M1vxe0juh-19" value="&lt;font style=&quot;font-size: 16px;&quot;&gt;NodeManager&lt;/font&gt;" style="html=1;dropTarget=0;whiteSpace=wrap;rounded=1;fillColor=#0050ef;fontColor=#ffffff;strokeColor=#001DBC;" parent="1" vertex="1">
          <mxGeometry x="742.5" y="435" width="135" height="65" as="geometry" />
        </mxCell>
        <mxCell id="QOSWHmzuld3M1vxe0juh-20" value="" style="shape=module;jettyWidth=8;jettyHeight=4;" parent="QOSWHmzuld3M1vxe0juh-19" vertex="1">
          <mxGeometry x="1" width="20" height="20" relative="1" as="geometry">
            <mxPoint x="-27" y="7" as="offset" />
          </mxGeometry>
        </mxCell>
        <mxCell id="QOSWHmzuld3M1vxe0juh-21" value="&lt;font style=&quot;font-size: 16px;&quot;&gt;NodeManager&lt;/font&gt;" style="html=1;dropTarget=0;whiteSpace=wrap;rounded=1;fillColor=#0050ef;fontColor=#ffffff;strokeColor=#001DBC;" parent="1" vertex="1">
          <mxGeometry x="752.5" y="700" width="135" height="65" as="geometry" />
        </mxCell>
        <mxCell id="QOSWHmzuld3M1vxe0juh-22" value="" style="shape=module;jettyWidth=8;jettyHeight=4;" parent="QOSWHmzuld3M1vxe0juh-21" vertex="1">
          <mxGeometry x="1" width="20" height="20" relative="1" as="geometry">
            <mxPoint x="-27" y="7" as="offset" />
          </mxGeometry>
        </mxCell>
        <mxCell id="QOSWHmzuld3M1vxe0juh-23" value="&lt;font style=&quot;font-size: 16px;&quot;&gt;NodeManager&lt;/font&gt;" style="html=1;dropTarget=0;whiteSpace=wrap;rounded=1;fillColor=#0050ef;fontColor=#ffffff;strokeColor=#001DBC;" parent="1" vertex="1">
          <mxGeometry x="745" y="190" width="135" height="65" as="geometry" />
        </mxCell>
        <mxCell id="QOSWHmzuld3M1vxe0juh-24" value="" style="shape=module;jettyWidth=8;jettyHeight=4;" parent="QOSWHmzuld3M1vxe0juh-23" vertex="1">
          <mxGeometry x="1" width="20" height="20" relative="1" as="geometry">
            <mxPoint x="-27" y="7" as="offset" />
          </mxGeometry>
        </mxCell>
        <mxCell id="QOSWHmzuld3M1vxe0juh-25" value="DataNode" style="html=1;dropTarget=0;whiteSpace=wrap;rounded=1;gradientColor=light-dark(#000000,#545454);" parent="1" vertex="1">
          <mxGeometry x="820" y="310" width="95" height="40" as="geometry" />
        </mxCell>
        <mxCell id="QOSWHmzuld3M1vxe0juh-26" value="" style="shape=module;jettyWidth=8;jettyHeight=4;" parent="QOSWHmzuld3M1vxe0juh-25" vertex="1">
          <mxGeometry x="1" width="11" height="20" relative="1" as="geometry">
            <mxPoint x="-18" y="7" as="offset" />
          </mxGeometry>
        </mxCell>
        <mxCell id="QOSWHmzuld3M1vxe0juh-27" value="DataNode" style="html=1;dropTarget=0;whiteSpace=wrap;rounded=1;gradientColor=light-dark(#000000,#545454);" parent="1" vertex="1">
          <mxGeometry x="820" y="830" width="95" height="40" as="geometry" />
        </mxCell>
        <mxCell id="QOSWHmzuld3M1vxe0juh-28" value="" style="shape=module;jettyWidth=8;jettyHeight=4;" parent="QOSWHmzuld3M1vxe0juh-27" vertex="1">
          <mxGeometry x="1" width="11" height="20" relative="1" as="geometry">
            <mxPoint x="-18" y="7" as="offset" />
          </mxGeometry>
        </mxCell>
        <mxCell id="QOSWHmzuld3M1vxe0juh-29" value="&lt;font style=&quot;font-size: 15px;&quot;&gt;App&lt;/font&gt;&lt;div&gt;&lt;font style=&quot;font-size: 15px;&quot;&gt;Master&lt;/font&gt;&lt;/div&gt;" style="html=1;dropTarget=0;whiteSpace=wrap;rounded=1;fillColor=#d80073;fontColor=#ffffff;strokeColor=#A50040;" parent="1" vertex="1">
          <mxGeometry x="705" y="510" width="95" height="40" as="geometry" />
        </mxCell>
        <mxCell id="QOSWHmzuld3M1vxe0juh-30" value="" style="shape=module;jettyWidth=8;jettyHeight=4;" parent="QOSWHmzuld3M1vxe0juh-29" vertex="1">
          <mxGeometry x="1" width="11" height="20" relative="1" as="geometry">
            <mxPoint x="-18" y="7" as="offset" />
          </mxGeometry>
        </mxCell>
        <mxCell id="QOSWHmzuld3M1vxe0juh-31" value="&lt;font style=&quot;font-size: 15px;&quot;&gt;App&lt;/font&gt;&lt;div&gt;&lt;font style=&quot;font-size: 15px;&quot;&gt;Master&lt;/font&gt;&lt;/div&gt;" style="html=1;dropTarget=0;whiteSpace=wrap;rounded=1;fillColor=#d80073;fontColor=#ffffff;strokeColor=#A50040;" parent="1" vertex="1">
          <mxGeometry x="820" y="260" width="95" height="40" as="geometry" />
        </mxCell>
        <mxCell id="QOSWHmzuld3M1vxe0juh-32" value="" style="shape=module;jettyWidth=8;jettyHeight=4;" parent="QOSWHmzuld3M1vxe0juh-31" vertex="1">
          <mxGeometry x="1" width="11" height="20" relative="1" as="geometry">
            <mxPoint x="-18" y="7" as="offset" />
          </mxGeometry>
        </mxCell>
        <mxCell id="QOSWHmzuld3M1vxe0juh-33" value="&lt;span style=&quot;font-size: 15px;&quot;&gt;Container&lt;/span&gt;" style="html=1;dropTarget=0;whiteSpace=wrap;rounded=1;fillColor=#e51400;fontColor=#ffffff;strokeColor=#B20000;" parent="1" vertex="1">
          <mxGeometry x="700" y="260" width="105" height="40" as="geometry" />
        </mxCell>
        <mxCell id="QOSWHmzuld3M1vxe0juh-34" value="" style="shape=module;jettyWidth=8;jettyHeight=4;" parent="QOSWHmzuld3M1vxe0juh-33" vertex="1">
          <mxGeometry x="1" width="11" height="20" relative="1" as="geometry">
            <mxPoint x="-18" y="7" as="offset" />
          </mxGeometry>
        </mxCell>
        <mxCell id="QOSWHmzuld3M1vxe0juh-35" value="&lt;span style=&quot;font-size: 15px;&quot;&gt;Container&lt;/span&gt;" style="html=1;dropTarget=0;whiteSpace=wrap;rounded=1;fillColor=#e51400;fontColor=#ffffff;strokeColor=#B20000;" parent="1" vertex="1">
          <mxGeometry x="815" y="510" width="105" height="40" as="geometry" />
        </mxCell>
        <mxCell id="QOSWHmzuld3M1vxe0juh-36" value="" style="shape=module;jettyWidth=8;jettyHeight=4;" parent="QOSWHmzuld3M1vxe0juh-35" vertex="1">
          <mxGeometry x="1" width="11" height="20" relative="1" as="geometry">
            <mxPoint x="-18" y="7" as="offset" />
          </mxGeometry>
        </mxCell>
        <mxCell id="QOSWHmzuld3M1vxe0juh-37" value="&lt;span style=&quot;font-size: 15px;&quot;&gt;Container&lt;/span&gt;" style="html=1;dropTarget=0;whiteSpace=wrap;rounded=1;fillColor=#e51400;fontColor=#ffffff;strokeColor=#B20000;" parent="1" vertex="1">
          <mxGeometry x="700" y="780" width="105" height="40" as="geometry" />
        </mxCell>
        <mxCell id="QOSWHmzuld3M1vxe0juh-38" value="" style="shape=module;jettyWidth=8;jettyHeight=4;" parent="QOSWHmzuld3M1vxe0juh-37" vertex="1">
          <mxGeometry x="1" width="11" height="20" relative="1" as="geometry">
            <mxPoint x="-18" y="7" as="offset" />
          </mxGeometry>
        </mxCell>
        <mxCell id="QOSWHmzuld3M1vxe0juh-39" value="&lt;span style=&quot;font-size: 15px;&quot;&gt;Container&lt;/span&gt;" style="html=1;dropTarget=0;whiteSpace=wrap;rounded=1;fillColor=#e51400;fontColor=#ffffff;strokeColor=#B20000;" parent="1" vertex="1">
          <mxGeometry x="815" y="780" width="105" height="40" as="geometry" />
        </mxCell>
        <mxCell id="QOSWHmzuld3M1vxe0juh-40" value="" style="shape=module;jettyWidth=8;jettyHeight=4;" parent="QOSWHmzuld3M1vxe0juh-39" vertex="1">
          <mxGeometry x="1" width="11" height="20" relative="1" as="geometry">
            <mxPoint x="-18" y="7" as="offset" />
          </mxGeometry>
        </mxCell>
        <mxCell id="QOSWHmzuld3M1vxe0juh-44" value="" style="curved=1;endArrow=classic;html=1;rounded=0;entryX=0.41;entryY=0.966;entryDx=0;entryDy=0;entryPerimeter=0;exitX=0.332;exitY=0.04;exitDx=0;exitDy=0;exitPerimeter=0;strokeWidth=4;fillColor=#fa6800;strokeColor=#C73500;" parent="1" source="QOSWHmzuld3M1vxe0juh-37" target="QOSWHmzuld3M1vxe0juh-29" edge="1">
          <mxGeometry width="50" height="50" relative="1" as="geometry">
            <mxPoint x="620" y="690" as="sourcePoint" />
            <mxPoint x="670" y="640" as="targetPoint" />
            <Array as="points">
              <mxPoint x="670" y="690" />
            </Array>
          </mxGeometry>
        </mxCell>
        <mxCell id="QOSWHmzuld3M1vxe0juh-45" value="" style="curved=1;endArrow=classic;html=1;rounded=0;entryX=0.75;entryY=1;entryDx=0;entryDy=0;exitX=0.657;exitY=0.089;exitDx=0;exitDy=0;exitPerimeter=0;strokeWidth=4;fillColor=#fa6800;strokeColor=#C73500;" parent="1" source="QOSWHmzuld3M1vxe0juh-39" target="QOSWHmzuld3M1vxe0juh-29" edge="1">
          <mxGeometry width="50" height="50" relative="1" as="geometry">
            <mxPoint x="1105" y="913" as="sourcePoint" />
            <mxPoint x="1114" y="680" as="targetPoint" />
            <Array as="points">
              <mxPoint x="930" y="670" />
            </Array>
          </mxGeometry>
        </mxCell>
        <mxCell id="QOSWHmzuld3M1vxe0juh-46" value="" style="curved=1;endArrow=classic;html=1;rounded=0;entryX=0.925;entryY=0.935;entryDx=0;entryDy=0;exitX=0.885;exitY=-0.027;exitDx=0;exitDy=0;exitPerimeter=0;strokeWidth=4;fillColor=#fa6800;strokeColor=#C73500;entryPerimeter=0;" parent="1" source="QOSWHmzuld3M1vxe0juh-35" target="QOSWHmzuld3M1vxe0juh-31" edge="1">
          <mxGeometry width="50" height="50" relative="1" as="geometry">
            <mxPoint x="1108" y="664" as="sourcePoint" />
            <mxPoint x="1000" y="430" as="targetPoint" />
            <Array as="points">
              <mxPoint x="1000" y="420" />
            </Array>
          </mxGeometry>
        </mxCell>
        <mxCell id="QOSWHmzuld3M1vxe0juh-47" value="" style="curved=1;endArrow=classic;html=1;rounded=0;exitX=0.5;exitY=1;exitDx=0;exitDy=0;strokeWidth=4;fillColor=#f0a30a;strokeColor=#BD7000;" parent="1" source="QOSWHmzuld3M1vxe0juh-33" target="QOSWHmzuld3M1vxe0juh-29" edge="1">
          <mxGeometry width="50" height="50" relative="1" as="geometry">
            <mxPoint x="540" y="360" as="sourcePoint" />
            <mxPoint x="590" y="310" as="targetPoint" />
            <Array as="points">
              <mxPoint x="640" y="370" />
            </Array>
          </mxGeometry>
        </mxCell>
        <mxCell id="pT3QGni-YWea2nY0N08p-1" value="&lt;font style=&quot;color: light-dark(rgb(0, 0, 0), rgb(0, 0, 0)); font-size: 16px;&quot;&gt;ResourceManager&lt;/font&gt;" style="text;html=1;align=center;verticalAlign=middle;whiteSpace=wrap;rounded=0;" parent="1" vertex="1">
          <mxGeometry x="380" y="415.9" width="60" height="30" as="geometry" />
        </mxCell>
        <mxCell id="pT3QGni-YWea2nY0N08p-2" value="&lt;span style=&quot;font-size: 16px;&quot;&gt;Scheduler&lt;/span&gt;" style="html=1;dropTarget=0;whiteSpace=wrap;rounded=1;arcSize=19;" parent="1" vertex="1">
          <mxGeometry x="300" y="469.65000000000003" width="110" height="52.5" as="geometry" />
        </mxCell>
        <mxCell id="pT3QGni-YWea2nY0N08p-3" value="" style="shape=module;jettyWidth=8;jettyHeight=4;" parent="pT3QGni-YWea2nY0N08p-2" vertex="1">
          <mxGeometry x="1" width="20" height="10" relative="1" as="geometry">
            <mxPoint x="-27" y="7" as="offset" />
          </mxGeometry>
        </mxCell>
        <mxCell id="pT3QGni-YWea2nY0N08p-4" value="&lt;span style=&quot;font-size: 16px;&quot;&gt;Applications&lt;/span&gt;&lt;div&gt;&lt;span style=&quot;font-size: 16px;&quot;&gt;Manager&lt;/span&gt;&lt;/div&gt;" style="html=1;dropTarget=0;whiteSpace=wrap;rounded=1;arcSize=19;" parent="1" vertex="1">
          <mxGeometry x="415" y="469.65000000000003" width="110" height="52.5" as="geometry" />
        </mxCell>
        <mxCell id="pT3QGni-YWea2nY0N08p-5" value="" style="shape=module;jettyWidth=8;jettyHeight=4;" parent="pT3QGni-YWea2nY0N08p-4" vertex="1">
          <mxGeometry x="1" width="20" height="10" relative="1" as="geometry">
            <mxPoint x="-27" y="7" as="offset" />
          </mxGeometry>
        </mxCell>
        <mxCell id="pT3QGni-YWea2nY0N08p-6" value="" style="curved=1;endArrow=classic;html=1;rounded=0;exitX=0;exitY=0.5;exitDx=0;exitDy=0;entryX=0.981;entryY=0.917;entryDx=0;entryDy=0;entryPerimeter=0;strokeWidth=4;strokeColor=light-dark(#000000,#3399FF);" parent="1" source="QOSWHmzuld3M1vxe0juh-21" target="QOSWHmzuld3M1vxe0juh-8" edge="1">
          <mxGeometry width="50" height="50" relative="1" as="geometry">
            <mxPoint x="560" y="760" as="sourcePoint" />
            <mxPoint x="610" y="710" as="targetPoint" />
            <Array as="points">
              <mxPoint x="610" y="760" />
            </Array>
          </mxGeometry>
        </mxCell>
        <mxCell id="pT3QGni-YWea2nY0N08p-7" value="" style="curved=1;endArrow=classic;html=1;rounded=0;exitX=0;exitY=0.5;exitDx=0;exitDy=0;entryX=1.007;entryY=0.58;entryDx=0;entryDy=0;entryPerimeter=0;strokeWidth=4;strokeColor=light-dark(#000000,#3399FF);" parent="1" source="QOSWHmzuld3M1vxe0juh-19" target="QOSWHmzuld3M1vxe0juh-8" edge="1">
          <mxGeometry width="50" height="50" relative="1" as="geometry">
            <mxPoint x="818" y="724" as="sourcePoint" />
            <mxPoint x="600" y="530" as="targetPoint" />
            <Array as="points" />
          </mxGeometry>
        </mxCell>
        <mxCell id="pT3QGni-YWea2nY0N08p-8" value="" style="curved=1;endArrow=classic;html=1;rounded=0;exitX=0;exitY=0.5;exitDx=0;exitDy=0;entryX=1;entryY=0.25;entryDx=0;entryDy=0;strokeWidth=4;strokeColor=light-dark(#000000,#3399FF);" parent="1" source="QOSWHmzuld3M1vxe0juh-23" target="QOSWHmzuld3M1vxe0juh-8" edge="1">
          <mxGeometry width="50" height="50" relative="1" as="geometry">
            <mxPoint x="818" y="454" as="sourcePoint" />
            <mxPoint x="600" y="260" as="targetPoint" />
            <Array as="points">
              <mxPoint x="590" y="240" />
            </Array>
          </mxGeometry>
        </mxCell>
        <mxCell id="pT3QGni-YWea2nY0N08p-9" value="" style="curved=1;endArrow=classic;html=1;rounded=0;exitX=0;exitY=0.5;exitDx=0;exitDy=0;entryX=1;entryY=0.75;entryDx=0;entryDy=0;strokeWidth=4;strokeColor=light-dark(#000000,#33FF33);" parent="1" source="QOSWHmzuld3M1vxe0juh-29" target="QOSWHmzuld3M1vxe0juh-8" edge="1">
          <mxGeometry width="50" height="50" relative="1" as="geometry">
            <mxPoint x="828" y="774" as="sourcePoint" />
            <mxPoint x="610" y="580" as="targetPoint" />
            <Array as="points">
              <mxPoint x="640" y="550" />
            </Array>
          </mxGeometry>
        </mxCell>
        <mxCell id="pT3QGni-YWea2nY0N08p-10" value="" style="curved=1;endArrow=classic;html=1;rounded=0;exitX=0;exitY=0.5;exitDx=0;exitDy=0;entryX=0.996;entryY=0.404;entryDx=0;entryDy=0;strokeWidth=4;strokeColor=light-dark(#000000,#33FF33);entryPerimeter=0;" parent="1" source="QOSWHmzuld3M1vxe0juh-31" target="QOSWHmzuld3M1vxe0juh-8" edge="1">
          <mxGeometry width="50" height="50" relative="1" as="geometry">
            <mxPoint x="775" y="404" as="sourcePoint" />
            <mxPoint x="610" y="390" as="targetPoint" />
            <Array as="points">
              <mxPoint x="680" y="390" />
            </Array>
          </mxGeometry>
        </mxCell>
        <mxCell id="pT3QGni-YWea2nY0N08p-11" value="" style="endArrow=classic;html=1;rounded=0;entryX=0;entryY=0.75;entryDx=0;entryDy=0;strokeWidth=4;" parent="1" source="QOSWHmzuld3M1vxe0juh-3" target="QOSWHmzuld3M1vxe0juh-8" edge="1">
          <mxGeometry width="50" height="50" relative="1" as="geometry">
            <mxPoint x="660" y="510" as="sourcePoint" />
            <mxPoint x="710" y="460" as="targetPoint" />
          </mxGeometry>
        </mxCell>
        <mxCell id="pT3QGni-YWea2nY0N08p-13" value="" style="endArrow=classic;html=1;rounded=0;entryX=0;entryY=0.5;entryDx=0;entryDy=0;exitX=1.017;exitY=0.503;exitDx=0;exitDy=0;exitPerimeter=0;strokeWidth=4;" parent="1" source="QOSWHmzuld3M1vxe0juh-2" target="QOSWHmzuld3M1vxe0juh-8" edge="1">
          <mxGeometry width="50" height="50" relative="1" as="geometry">
            <mxPoint x="170" y="513" as="sourcePoint" />
            <mxPoint x="314" y="440" as="targetPoint" />
          </mxGeometry>
        </mxCell>
        <mxCell id="Sa0x6e_pg8RO5LA5vpqG-1" value="" style="rounded=0;whiteSpace=wrap;html=1;" parent="1" vertex="1">
          <mxGeometry x="80" y="50" width="500" height="200" as="geometry" />
        </mxCell>
        <mxCell id="Sa0x6e_pg8RO5LA5vpqG-2" value="" style="endArrow=classic;html=1;rounded=0;entryX=0.18;entryY=0.15;entryDx=0;entryDy=0;entryPerimeter=0;strokeWidth=4;strokeColor=light-dark(#000000,#3399FF);align=center;verticalAlign=middle;fontFamily=Helvetica;fontSize=11;fontColor=default;labelBackgroundColor=default;curved=1;" parent="1" target="Sa0x6e_pg8RO5LA5vpqG-1" edge="1">
          <mxGeometry width="50" height="50" relative="1" as="geometry">
            <mxPoint x="110" y="80" as="sourcePoint" />
            <mxPoint x="160" y="30" as="targetPoint" />
          </mxGeometry>
        </mxCell>
        <mxCell id="Sa0x6e_pg8RO5LA5vpqG-3" value="Text" style="text;html=1;align=center;verticalAlign=middle;whiteSpace=wrap;rounded=0;" parent="1" vertex="1">
          <mxGeometry x="425" y="60" width="60" height="30" as="geometry" />
        </mxCell>
      </root>
    </mxGraphModel>
  </diagram>
</mxfile>
